<?xml version="1.0" standalone="no"?>
<!DOCTYPE svg PUBLIC "-//W3C//DTD SVG 20010904//EN"
 "http://www.w3.org/TR/2001/REC-SVG-20010904/DTD/svg10.dtd">
<svg version="1.0" xmlns="http://www.w3.org/2000/svg"
 width="720.000000pt" height="900.000000pt" viewBox="0 0 720.000000 900.000000"
 preserveAspectRatio="xMidYMid meet">

<g transform="translate(0.000000,900.000000) scale(0.100000,-0.100000)"
fill="#000000" stroke="none">
<path d="M2952 8565 c-13 -12 -23 -31 -22 -41 4 -32 1 -44 -11 -44 -6 0 -8 7
-5 16 4 10 -5 6 -25 -10 -17 -14 -34 -26 -39 -26 -5 0 -16 -14 -24 -32 -15
-30 -15 -32 4 -50 24 -22 25 -32 6 -48 -8 -6 -25 -31 -36 -56 -19 -38 -20 -48
-10 -80 9 -26 9 -39 1 -47 -6 -6 -11 -28 -11 -49 0 -49 -25 -78 -67 -78 -30 0
-33 -3 -33 -31 0 -30 1 -31 33 -25 40 8 75 -21 62 -51 -4 -10 -7 -30 -6 -44 1
-15 -14 -75 -34 -135 -28 -85 -45 -117 -73 -147 -28 -28 -43 -36 -62 -33 -14
3 -20 3 -13 0 15 -7 6 -62 -14 -86 -13 -15 -13 -16 6 -11 24 6 27 -9 6 -30
-11 -11 -13 -27 -9 -61 7 -50 -5 -76 -37 -76 -11 0 -19 -7 -19 -15 0 -22 -30
-65 -44 -65 -23 0 -61 -24 -85 -53 -20 -24 -22 -34 -15 -55 6 -17 18 -28 32
-30 12 -2 22 -10 22 -18 0 -8 5 -14 10 -14 18 0 10 -18 -10 -23 -12 -3 -20
-14 -20 -26 0 -14 -5 -19 -16 -14 -13 5 -14 -2 -8 -44 4 -33 2 -53 -5 -57 -6
-4 -11 -22 -11 -39 -1 -37 -33 -82 -51 -71 -9 5 -10 2 -6 -9 4 -11 -2 -22 -18
-33 -13 -9 -21 -22 -18 -29 2 -8 -7 -25 -21 -38 -14 -13 -26 -32 -26 -40 0
-10 -12 -19 -27 -23 -37 -9 -83 -53 -83 -79 0 -49 -42 -125 -69 -125 -8 0 -27
-85 -23 -103 4 -16 -20 -153 -31 -175 -6 -12 -24 -30 -41 -40 -17 -10 -47 -39
-66 -65 -19 -26 -45 -50 -57 -53 -13 -3 -23 -11 -23 -16 0 -6 -6 -8 -14 -5
-16 7 -26 -13 -26 -51 0 -15 -7 -40 -15 -56 -8 -15 -15 -34 -15 -42 0 -7 -16
-25 -36 -40 -19 -15 -42 -43 -50 -63 -23 -55 -104 -169 -140 -196 -35 -27 -56
-30 -121 -19 -37 6 -46 3 -83 -26 -22 -17 -37 -37 -34 -42 4 -7 2 -8 -4 -4
-15 9 -534 -403 -525 -417 3 -6 1 -7 -5 -3 -7 4 -45 -19 -90 -55 -103 -83
-101 -81 -71 -74 16 4 30 2 33 -4 13 -21 26 -11 49 36 29 62 59 82 134 89 59
6 66 5 143 -35 94 -49 176 -64 199 -37 17 20 61 21 108 1 44 -19 53 -30 53
-71 0 -40 21 -58 58 -50 32 8 91 -14 139 -50 17 -13 39 -24 47 -24 33 0 64
-24 84 -66 19 -38 21 -55 16 -115 -5 -53 -4 -73 6 -79 35 -22 52 -116 37 -217
-8 -60 7 -149 31 -175 18 -21 18 -68 0 -100 -7 -13 -13 -39 -14 -58 -1 -19 -5
-46 -9 -59 -6 -17 -5 -22 3 -17 14 8 9 -6 -19 -61 -10 -20 -19 -46 -19 -56 0
-10 -5 -27 -10 -38 -6 -10 -13 -56 -16 -101 -3 -45 -7 -84 -9 -87 -2 -2 0 -12
5 -22 18 -32 -9 -109 -55 -159 -23 -25 -51 -59 -63 -76 -17 -25 -27 -30 -47
-26 -27 5 -55 -12 -55 -33 0 -8 16 -23 35 -35 19 -12 35 -28 35 -35 0 -22 17
-27 33 -10 20 20 77 19 105 -1 18 -12 22 -24 20 -52 -3 -32 -9 -40 -48 -62
l-45 -25 39 -5 c33 -4 40 -10 50 -40 9 -29 16 -34 41 -35 23 0 31 -5 33 -21 2
-12 11 -24 22 -27 10 -3 21 -18 25 -37 5 -22 10 -28 15 -20 10 17 30 4 30 -21
0 -10 5 -19 10 -19 6 0 10 -9 10 -20 0 -11 7 -20 15 -20 8 0 23 -17 34 -38 11
-22 31 -47 45 -56 15 -9 40 -41 57 -71 17 -30 37 -55 44 -55 7 0 16 -11 19
-25 8 -31 48 -34 68 -6 20 28 80 61 111 61 16 0 43 6 60 14 18 7 61 18 97 25
60 10 66 9 87 -11 12 -11 32 -26 45 -32 30 -15 43 -86 27 -141 -7 -22 -13 -60
-14 -85 -1 -25 -5 -54 -8 -65 -9 -27 -55 -54 -93 -54 -33 0 -48 -3 -87 -19
-16 -7 -33 -12 -38 -12 -5 0 -15 -12 -22 -27 -6 -16 -17 -32 -24 -36 -23 -14
-72 -123 -84 -184 -14 -74 -16 -112 -6 -140 7 -19 2 -27 -32 -50 -22 -15 -43
-37 -47 -48 -4 -11 -22 -37 -40 -58 -19 -20 -34 -44 -34 -52 0 -23 36 -36 79
-29 37 6 40 4 55 -25 9 -17 29 -37 45 -45 30 -16 41 -47 41 -118 0 -75 40
-117 112 -118 40 0 50 -4 68 -30 11 -16 33 -35 48 -42 34 -17 40 -53 13 -81
-11 -12 -24 -34 -30 -49 -6 -17 -18 -28 -29 -28 -26 0 -42 -20 -42 -51 0 -20
7 -30 30 -39 16 -7 35 -19 42 -27 7 -9 30 -27 51 -40 45 -28 71 -81 62 -125
-5 -23 -2 -34 19 -55 14 -14 26 -30 26 -36 0 -5 10 -20 23 -31 12 -12 27 -31
33 -42 10 -17 21 -19 87 -16 50 2 88 -3 111 -12 19 -8 36 -13 38 -12 2 2 15 6
31 10 24 6 27 4 27 -19 0 -18 7 -28 26 -35 14 -6 30 -8 35 -4 12 7 12 41 -1
63 -7 14 -3 26 15 52 15 19 25 47 25 66 0 23 6 36 21 44 19 10 21 17 16 64 -3
29 -1 70 4 91 6 22 12 92 14 157 2 90 7 123 19 136 19 21 21 79 3 102 -7 9
-23 21 -35 28 -30 16 -51 67 -45 107 3 17 -2 48 -11 68 -9 21 -16 58 -16 83 0
24 -9 61 -20 83 -24 48 -25 62 -3 103 9 18 18 41 20 51 4 22 21 46 33 46 17 0
90 81 90 99 0 10 7 24 15 31 8 7 12 17 9 22 -3 5 1 15 10 21 9 7 18 36 22 72
5 44 16 73 41 109 18 27 33 61 33 77 0 15 8 34 18 41 31 24 62 95 62 142 0 25
4 47 9 50 5 3 7 24 4 46 -4 24 -1 46 7 54 6 9 9 20 5 26 -4 6 -2 16 3 23 5 7
15 37 23 67 20 86 35 107 92 136 28 14 62 35 73 46 12 10 50 26 85 34 169 38
299 83 299 104 0 6 6 10 13 10 7 0 18 9 25 20 9 16 23 20 62 20 28 0 50 -4 50
-10 0 -23 32 -8 41 20 6 17 23 34 40 42 16 7 29 16 29 20 0 12 103 108 131
123 36 19 110 45 131 45 11 0 21 14 29 41 8 27 22 45 40 54 15 8 37 34 48 59
14 27 33 50 52 59 19 9 27 17 20 21 -17 11 -2 28 19 21 14 -4 19 0 22 16 3 23
69 52 95 42 17 -7 92 15 114 34 23 19 146 17 166 -2 8 -9 29 -19 46 -22 17 -4
32 -14 34 -25 3 -10 11 -18 19 -18 7 0 19 -9 27 -20 21 -30 68 -36 91 -11 13
15 31 21 60 21 25 0 51 8 66 20 29 23 52 25 80 8 15 -10 27 -10 54 0 19 7 46
10 61 6 22 -5 32 0 65 35 27 29 40 51 40 70 0 16 7 34 15 41 9 7 15 29 15 51
0 22 4 39 8 39 4 0 8 25 8 55 -1 39 3 58 14 65 11 7 12 12 3 21 -6 6 -9 26 -6
45 5 30 2 34 -28 49 -69 33 -79 40 -90 67 -6 16 -18 28 -25 28 -28 0 -56 40
-50 71 4 19 -1 40 -15 64 -14 24 -19 45 -16 63 3 16 1 47 -4 70 -7 32 -6 50 4
70 9 18 11 40 6 67 -8 43 -4 51 33 69 12 6 32 30 43 52 26 52 59 96 113 147
35 34 42 47 42 80 0 21 8 52 17 67 15 27 15 30 0 54 -9 14 -17 42 -17 63 -1
48 -22 129 -38 145 -7 7 -12 22 -12 35 0 13 -10 33 -22 45 -19 19 -23 35 -24
90 -1 53 1 68 13 68 13 0 49 69 54 106 4 27 -19 100 -35 113 -7 6 -21 9 -29 5
-12 -4 -18 2 -23 23 -4 15 -10 33 -14 38 -3 6 -7 27 -9 47 -1 29 5 45 30 72
17 20 36 36 43 36 13 0 46 55 46 78 0 10 29 48 65 85 36 37 65 76 65 86 0 10
9 30 21 45 15 19 20 38 19 69 -4 64 -3 64 48 120 27 29 62 73 79 99 25 40 33
45 42 34 13 -15 77 -12 95 5 6 5 28 9 51 9 55 0 107 16 125 39 70 86 72 91 60
105 -9 12 -4 17 32 26 66 17 70 19 75 40 3 11 9 20 14 20 5 0 17 16 26 35 9
19 20 35 25 35 16 0 62 62 76 101 12 38 12 43 -6 63 -22 24 -37 76 -22 76 5 0
10 13 10 29 0 17 5 33 10 36 21 13 -2 24 -66 30 -74 8 -103 -4 -63 -26 13 -7
29 -13 34 -14 6 0 10 -13 10 -30 0 -25 -4 -29 -20 -26 -11 2 -41 4 -67 4 -34
1 -48 5 -48 15 0 11 -8 13 -32 8 -18 -4 -44 -7 -58 -7 -14 -1 -29 -6 -33 -12
-6 -9 -10 -9 -14 1 -2 6 -9 9 -14 6 -6 -3 -7 4 -4 19 6 24 5 25 -61 29 -39 2
-69 9 -72 16 -2 8 -8 8 -22 0 -14 -9 -24 -8 -44 5 -26 18 -35 37 -16 37 6 0
10 4 10 9 0 5 -9 7 -19 4 -35 -9 -89 17 -128 62 -33 39 -43 45 -78 45 -42 0
-50 4 -131 57 -27 18 -62 33 -79 33 -16 0 -70 13 -120 29 -124 39 -179 49
-255 47 -50 -1 -66 -5 -68 -17 -2 -10 9 -21 28 -29 33 -14 42 -35 10 -27 -11
3 -18 1 -14 -4 3 -5 12 -9 20 -9 8 0 14 -5 14 -11 0 -7 -10 -9 -27 -4 -23 5
-26 4 -15 -6 6 -7 12 -24 12 -38 0 -18 -3 -22 -11 -14 -6 6 -17 9 -24 7 -13
-5 -35 44 -35 77 0 11 -4 19 -10 19 -5 0 -7 -13 -3 -30 3 -19 1 -30 -5 -30 -6
0 -9 -6 -6 -13 3 -10 -5 -12 -31 -9 -19 2 -35 9 -35 14 0 6 -9 8 -21 5 -16 -4
-19 -2 -14 11 5 14 4 15 -7 4 -10 -10 -10 -16 1 -34 11 -18 11 -20 -3 -15 -9
4 -16 2 -16 -3 0 -6 -6 -10 -14 -10 -11 0 -13 9 -9 35 7 45 -12 47 -21 3 -5
-23 -9 -29 -15 -20 -6 10 -13 11 -27 4 -11 -6 -34 -16 -51 -22 -28 -10 -32
-16 -27 -36 9 -37 -10 -28 -25 11 -7 19 -16 35 -21 35 -10 0 -20 -25 -20 -51
0 -15 -5 -19 -17 -15 -10 3 -23 2 -29 -2 -19 -12 -47 -75 -53 -116 -3 -22 -11
-41 -18 -43 -7 -3 -9 4 -6 18 4 15 3 20 -5 15 -7 -4 -12 -1 -13 6 0 7 -7 -3
-15 -22 -19 -45 -61 -77 -77 -60 -9 9 -8 15 6 25 13 9 17 20 12 34 -7 24 -25
28 -25 6 0 -8 -4 -15 -10 -15 -5 0 -10 5 -10 10 0 6 -4 10 -10 10 -5 0 -10 -5
-10 -11 0 -31 -66 -51 -77 -23 -6 16 23 54 42 54 7 0 19 7 26 16 7 9 23 20 36
25 16 6 21 13 16 26 -6 16 -5 16 9 5 13 -10 22 -11 37 -2 25 13 44 46 36 60
-7 12 33 49 52 50 14 0 28 43 20 62 -4 8 -6 7 -6 -4 -1 -25 -21 -23 -21 2 0
11 -7 20 -15 20 -8 0 -15 5 -15 10 0 10 20 14 52 12 12 -1 15 3 11 14 -7 19
-49 11 -108 -19 -22 -11 -58 -23 -80 -27 l-40 -5 2 -48 c3 -53 -3 -60 -17 -21
-7 16 -16 24 -28 22 -18 -4 -20 -27 -7 -98 6 -33 5 -34 -9 -16 -16 20 -16 20
-16 -1 0 -11 -7 -37 -15 -58 -12 -27 -13 -40 -5 -50 6 -8 7 -16 2 -19 -5 -3
-12 -30 -14 -60 -5 -57 -37 -108 -84 -134 -13 -7 -31 -26 -39 -42 -9 -17 -24
-30 -34 -30 -10 0 -26 -15 -37 -35 -17 -33 -44 -50 -89 -57 -16 -3 -20 -11
-21 -41 0 -40 -15 -63 -34 -52 -8 5 -8 10 0 20 8 9 8 20 2 32 -14 26 3 63 28
63 12 0 24 9 29 23 5 12 25 38 45 57 44 43 45 56 5 64 -29 6 -30 7 -26 51 3
25 12 56 20 68 8 13 17 45 20 72 8 71 18 115 27 115 6 0 35 56 59 115 2 6 -5
3 -15 -6 -32 -28 -87 -53 -82 -37 3 7 18 17 35 22 17 4 34 17 36 27 3 11 14
19 26 19 15 0 23 10 30 38 20 70 9 91 -31 55 -10 -9 -18 -11 -18 -5 0 6 12 20
26 31 l26 20 28 -21 c24 -17 35 -19 62 -12 26 8 34 16 39 44 5 23 3 41 -7 54
-8 11 -14 33 -14 49 0 33 -40 77 -70 77 -11 0 -28 -10 -38 -22 -19 -23 -32
-36 -80 -76 -24 -20 -34 -36 -34 -57 0 -54 -9 -96 -19 -90 -5 4 -6 18 -3 33
l7 27 -27 -24 c-34 -32 -35 -9 -1 41 30 44 33 69 6 44 -18 -16 -20 -16 -29 -1
-8 15 -13 16 -46 4 -29 -11 -38 -11 -48 0 -11 10 -10 12 2 10 8 -2 26 3 38 10
13 7 35 10 48 7 19 -5 22 -3 17 10 -5 12 -2 15 13 11 13 -4 30 4 52 23 37 34
39 40 13 33 -10 -3 -22 0 -25 6 -4 7 1 11 13 11 11 0 44 23 73 51 l53 52 -52
-6 c-60 -7 -73 9 -15 18 63 11 64 11 56 52 -9 52 -12 56 -45 49 -36 -7 -38 10
-4 26 14 6 25 18 25 26 0 12 -4 11 -22 -4 -21 -19 -21 -19 -16 4 4 12 2 22 -3
22 -5 0 -9 -7 -9 -15 0 -8 -4 -15 -10 -15 -5 0 -10 5 -10 11 0 7 -10 9 -27 4
-23 -5 -26 -4 -15 6 6 7 12 21 12 30 0 10 7 25 16 33 17 17 11 36 -12 36 -9 0
-14 -10 -14 -28 0 -16 -6 -37 -14 -47 -12 -17 -17 -18 -37 -7 -17 9 -34 10
-56 3 -46 -13 -42 4 6 28 36 19 67 57 37 45 -8 -3 -17 0 -21 6 -5 8 -11 4 -19
-12 -6 -12 -22 -24 -34 -26 -28 -4 -29 14 0 21 17 5 19 9 9 21 -7 9 -8 16 -2
20 6 4 4 17 -5 34 -7 15 -14 38 -14 52 -1 22 -2 23 -11 7 -6 -9 -7 -26 -4 -37
8 -26 -11 -26 -25 0 -14 26 -28 25 -32 -2 -2 -12 -9 -23 -16 -26 -7 -2 -10 2
-6 12 4 10 0 18 -10 22 -20 8 -21 24 -1 24 9 0 15 9 15 24 0 14 13 38 30 54
28 28 40 62 23 62 -22 -1 -72 -61 -83 -99 -9 -33 -15 -41 -27 -36 -9 3 -20 0
-24 -7 -4 -7 -11 -9 -15 -5 -9 9 15 37 32 37 22 0 16 17 -8 25 -14 4 -18 8
-10 12 18 7 15 23 -6 23 -10 0 -23 5 -30 12 -9 9 -12 9 -12 0 0 -7 -7 -12 -16
-12 -8 0 -12 4 -9 10 3 6 -1 7 -9 4 -9 -3 -16 -10 -16 -16 0 -5 -9 -6 -20 -3
-14 5 -20 2 -20 -9 0 -9 -8 -16 -19 -16 -41 0 -62 -78 -31 -115 14 -16 5 -35
-15 -35 -8 0 -19 -8 -24 -19 -15 -27 -47 -32 -73 -11 -21 17 -22 21 -10 64 16
61 15 86 -3 86 -8 0 -15 -4 -15 -10 0 -5 -4 -10 -10 -10 -14 0 -12 21 4 39 7
9 17 27 21 41 7 22 6 23 -9 11 -9 -7 -16 -10 -16 -5 0 5 14 17 30 26 17 9 30
25 30 34 0 10 5 14 15 10 12 -4 14 0 9 22 -16 66 -49 83 -49 24 1 -17 -3 -28
-7 -26 -4 3 -12 -5 -18 -18 -18 -43 -62 -84 -46 -42 3 8 2 12 -4 9 -6 -3 -10
-26 -10 -51 0 -26 -5 -44 -11 -44 -6 0 -9 9 -6 20 6 22 -8 37 -18 20 -8 -13
-25 -3 -21 13 1 7 1 9 -1 5 -3 -5 -12 -8 -20 -8 -13 0 -13 3 -3 15 7 8 18 15
25 15 15 0 25 22 25 53 0 20 -1 20 -26 -4 l-27 -24 7 25 c4 14 10 36 13 50 5
24 5 24 -10 5 -8 -11 -19 -17 -23 -13 -4 4 -1 14 6 23 10 12 10 15 -2 15 -8 0
-20 -6 -27 -12 -11 -11 -13 -8 -9 15 4 19 1 27 -9 27 -11 0 -13 -7 -8 -28 4
-20 1 -33 -12 -44 -20 -17 -66 -31 -58 -18 3 5 1 12 -5 15 -6 4 -8 15 -5 26 4
10 2 19 -4 19 -5 0 -9 12 -8 28 1 17 -3 26 -10 25 -16 -4 -16 -3 2 40 17 42
20 71 5 62 -5 -3 -10 -15 -10 -25 0 -10 -6 -25 -13 -32 -8 -7 -17 -26 -21 -42
-5 -19 -12 -26 -21 -22 -14 5 -19 -5 -16 -31 1 -7 -3 -13 -8 -13 -14 0 -23 34
-15 56 6 16 2 15 -21 -6 l-27 -25 7 25 c7 22 6 23 -9 11 -21 -18 -23 5 -2 28
10 11 12 21 6 31 -8 13 -10 12 -10 -2 0 -10 -4 -18 -10 -18 -12 0 -12 2 1 37
7 20 7 25 -1 17 -6 -6 -12 -25 -15 -44 -5 -43 -24 -63 -31 -33 -3 12 -14 23
-25 26 -25 7 -24 32 1 67 25 35 13 45 -18 15z"/>
<path d="M3869 8421 c-1 -4 0 -18 1 -33 1 -14 -3 -29 -9 -33 -6 -3 -11 1 -11
9 0 9 -4 16 -10 16 -14 0 -13 -33 2 -48 17 -17 38 -15 38 5 0 9 3 13 6 10 4
-3 15 -2 26 4 13 7 17 16 13 30 -4 11 -2 19 4 19 6 0 11 -5 11 -12 0 -9 3 -9
12 0 18 18 -8 40 -47 39 -19 -1 -35 -3 -36 -6z"/>
<path d="M3471 8403 c0 -7 -7 -13 -15 -13 -7 0 -16 -9 -19 -20 -4 -18 -2 -20
16 -14 29 9 29 9 24 36 -2 12 -5 17 -6 11z"/>
<path d="M4030 8230 c-28 -28 -26 -37 18 -81 37 -39 65 -49 77 -29 5 8 11 7
21 -1 11 -9 14 -8 14 2 0 22 -13 36 -35 41 -13 2 -19 11 -18 23 1 19 1 19 -11
3 -21 -28 -28 -21 -24 22 4 46 -10 52 -42 20z"/>
<path d="M5027 7543 c-20 -5 -51 -59 -42 -73 11 -17 34 -11 46 13 6 12 21 32
32 45 20 21 20 22 1 21 -10 -1 -27 -3 -37 -6z"/>
<path d="M5090 7450 c-13 -9 -12 -12 5 -25 24 -19 36 -15 46 13 7 19 5 22 -14
22 -12 0 -29 -5 -37 -10z"/>
<path d="M4879 7408 c-6 -24 -18 -55 -27 -70 -22 -38 -11 -43 42 -19 32 15 44
26 40 36 -4 8 -2 15 3 15 11 0 33 44 33 65 0 8 -15 -1 -36 -21 -39 -39 -54
-39 -36 1 14 31 15 35 2 35 -5 0 -14 -19 -21 -42z"/>
<path d="M6380 7171 c8 -6 23 -11 33 -11 23 0 50 -26 42 -40 -3 -5 3 -10 14
-10 62 0 15 57 -54 65 -36 5 -46 4 -35 -4z"/>
<path d="M6300 7157 c0 -7 13 -26 29 -41 26 -25 35 -28 66 -22 36 7 40 21 7
21 -9 0 -16 6 -15 12 2 7 -13 20 -33 28 -45 18 -54 19 -54 2z"/>
<path d="M4261 7115 c-21 -25 -31 -46 -31 -69 0 -20 -8 -40 -19 -50 -28 -25
-33 -68 -12 -109 l18 -35 23 38 c13 21 32 41 43 44 10 2 16 9 13 15 -4 6 0 35
8 66 15 57 12 67 -10 38 -11 -15 -13 -15 -13 -3 0 8 6 24 14 34 16 22 20 66 6
66 -5 0 -23 -16 -40 -35z"/>
<path d="M4450 7064 c0 -8 5 -12 10 -9 6 3 10 10 10 16 0 5 -4 9 -10 9 -5 0
-10 -7 -10 -16z"/>
<path d="M515 4810 c-3 -5 -2 -10 4 -10 5 0 13 5 16 10 3 6 2 10 -4 10 -5 0
-13 -4 -16 -10z"/>
</g>
</svg>
